<svg width="45" height="45" viewBox="0 0 45 45" fill="none" xmlns="http://www.w3.org/2000/svg">
<mask id="mask0_212_1792" style="mask-type:alpha" maskUnits="userSpaceOnUse" x="0" y="0" width="45" height="45">
<rect x="0.227051" y="0.386536" width="44.2269" height="44.2269" fill="#D9D9D9"/>
</mask>
<g mask="url(#mask0_212_1792)">
<path d="M18.1942 21.5786C17.8775 21.5786 17.6152 21.4747 17.4073 21.2667C17.1994 21.0588 17.0954 20.7965 17.0954 20.4799C17.0954 20.1635 17.1994 19.9014 17.4073 19.6935C17.6152 19.4855 17.8775 19.3816 18.1942 19.3816H26.4867C26.8034 19.3816 27.0656 19.4855 27.2736 19.6935C27.4815 19.9014 27.5855 20.1635 27.5855 20.4799C27.5855 20.7965 27.4815 21.0588 27.2736 21.2667C27.0656 21.4747 26.8034 21.5786 26.4867 21.5786H18.1942ZM20.0369 26.5399C19.7203 26.5399 19.458 26.4359 19.2501 26.228C19.0421 26.0201 18.9382 25.7579 18.9382 25.4416C18.9382 25.1249 19.0421 24.8626 19.2501 24.6547C19.458 24.4468 19.7203 24.3428 20.0369 24.3428H24.6439C24.9606 24.3428 25.2229 24.4468 25.4308 24.6547C25.6387 24.8626 25.7427 25.1249 25.7427 25.4416C25.7427 25.7579 25.6387 26.0201 25.4308 26.228C25.2229 26.4359 24.9606 26.5399 24.6439 26.5399H20.0369ZM19.7891 40.0065C19.1794 40.0065 18.6272 39.8245 18.1324 39.4606C17.6373 39.0969 17.2964 38.6103 17.1097 38.0006L15.9971 34.1874C15.8245 33.6205 15.5611 33.0606 15.207 32.5077C14.8526 31.9549 14.3859 31.3938 13.8069 30.8244C12.6917 29.7589 11.8388 28.5103 11.2482 27.0784C10.6576 25.6469 10.3623 24.1208 10.3623 22.5C10.3623 20.91 10.6576 19.3992 11.2482 17.9677C11.8388 16.5358 12.6917 15.2718 13.8069 14.1757C14.3859 13.5756 14.8526 13.0038 15.207 12.4605C15.5611 11.9172 15.8245 11.3679 15.9971 10.8126L17.1097 6.9994C17.2964 6.38975 17.6373 5.9031 18.1324 5.53946C18.6272 5.1755 19.1794 4.99353 19.7891 4.99353H24.8918C25.5014 4.99353 26.0537 5.1755 26.5484 5.53946C27.0435 5.9031 27.3844 6.38975 27.5712 6.9994L28.6838 10.8126C28.8564 11.3796 29.1197 11.9395 29.4739 12.4923C29.8283 13.0451 30.295 13.6063 30.8739 14.1757C31.9891 15.2411 32.842 16.4898 33.4326 17.9216C34.0233 19.3532 34.3186 20.8793 34.3186 22.5C34.3186 24.09 34.0233 25.6008 33.4326 27.0324C32.842 28.4642 31.9891 29.7282 30.8739 30.8244C30.295 31.4245 29.8283 31.9962 29.4739 32.5395C29.1197 33.0829 28.8564 33.6322 28.6838 34.1874L27.5712 38.0006C27.3844 38.6103 27.0435 39.0969 26.5484 39.4606C26.0537 39.8245 25.5014 40.0065 24.8918 40.0065H19.7891ZM22.3404 31.714C24.8896 31.714 27.0626 30.8156 28.8593 29.0189C30.656 27.2222 31.5544 25.0492 31.5544 22.5C31.5544 19.9508 30.656 17.7779 28.8593 15.9812C27.0626 14.1844 24.8896 13.2861 22.3404 13.2861C19.7912 13.2861 17.6183 14.1844 15.8216 15.9812C14.0248 17.7779 13.1265 19.9508 13.1265 22.5C13.1265 25.0492 14.0248 27.2222 15.8216 29.0189C17.6183 30.8156 19.7912 31.714 22.3404 31.714ZM18.8037 11.0535C19.4299 10.8763 20.03 10.7387 20.6041 10.6408C21.1781 10.5428 21.7569 10.4938 22.3404 10.4938C22.924 10.4938 23.5028 10.5428 24.0768 10.6408C24.6508 10.7387 25.251 10.8763 25.8772 11.0535L24.8918 7.75771L19.7891 7.75771L18.8037 11.0535ZM19.7891 37.2423H24.8918L25.8772 33.9465C25.251 34.1237 24.6508 34.2536 24.0768 34.3363C23.5028 34.4189 22.924 34.4602 22.3404 34.4602C21.7569 34.4602 21.1781 34.4189 20.6041 34.3363C20.03 34.2536 19.4299 34.1237 18.8037 33.9465L19.7891 37.2423Z" fill="white"/>
</g>
</svg>
