<svg width="40" height="40" viewBox="0 0 40 40" fill="none" xmlns="http://www.w3.org/2000/svg">
<mask id="mask0_534_504" style="mask-type:alpha" maskUnits="userSpaceOnUse" x="0" y="0" width="40" height="40">
<rect width="40" height="40" fill="#D9D9D9"/>
</mask>
<g mask="url(#mask0_534_504)">
<path d="M24.9661 19.955L11.9777 6.97748C11.7063 6.69914 11.5704 6.35762 11.5698 5.95289C11.569 5.54845 11.7079 5.20484 11.9865 4.92206C12.2762 4.63206 12.6234 4.48706 13.0281 4.48706C13.4326 4.48706 13.7798 4.63206 14.0698 4.92206L27.2694 18.1304C27.5366 18.3904 27.7279 18.6791 27.8431 18.9966C27.9584 19.3144 28.0161 19.6339 28.0161 19.955C28.0161 20.2833 27.9584 20.6064 27.8431 20.9241C27.7279 21.2419 27.5366 21.5307 27.2694 21.7904L14.044 35.0158C13.7543 35.3058 13.4113 35.4465 13.0152 35.4379C12.6191 35.4293 12.2762 35.2801 11.9865 34.9904C11.7079 34.7076 11.5658 34.3668 11.5602 33.9679C11.5544 33.569 11.6965 33.2247 11.9865 32.935L24.9661 19.955Z" fill="#1C1B1F"/>
</g>
</svg>
