<svg width="40" height="40" viewBox="0 0 40 40" fill="none" xmlns="http://www.w3.org/2000/svg">
<mask id="mask0_534_498" style="mask-type:alpha" maskUnits="userSpaceOnUse" x="0" y="0" width="40" height="40">
<rect width="40" height="40" fill="#D9D9D9"/>
</mask>
<g mask="url(#mask0_534_498)">
<path d="M4.71602 20L17.7043 32.9775C17.9757 33.2561 18.1114 33.5965 18.1114 33.9988C18.1117 34.401 17.9746 34.7467 17.7002 35.0358C17.4074 35.3253 17.0599 35.47 16.6577 35.47C16.2557 35.47 15.9102 35.3252 15.621 35.0354L2.41268 21.8246C2.14907 21.5649 1.95865 21.2761 1.84143 20.9583C1.72449 20.6406 1.66602 20.322 1.66602 20.0025C1.66602 19.6831 1.72365 19.3636 1.83893 19.0442C1.95421 18.7247 2.14546 18.4315 2.41268 18.1646L15.6381 4.93918C15.9309 4.64918 16.276 4.50849 16.6735 4.5171C17.0707 4.52571 17.4143 4.67488 17.7043 4.9646C17.9757 5.2546 18.1142 5.59765 18.1198 5.99376C18.1256 6.3896 17.9871 6.73251 17.7043 7.02251L4.71602 20Z" fill="#1C1B1F"/>
</g>
</svg>
