<svg width="25" height="25" viewBox="0 0 25 25" fill="none" xmlns="http://www.w3.org/2000/svg">
<mask id="mask0_312_1250" style="mask-type:alpha" maskUnits="userSpaceOnUse" x="0" y="0" width="25" height="25">
<rect x="0.593628" y="0.637512" width="24" height="24" fill="#D9D9D9"/>
</mask>
<g mask="url(#mask0_312_1250)">
<path d="M11.8436 17.2645V5.88751C11.8436 5.67468 11.9155 5.49651 12.0591 5.35301C12.2026 5.20935 12.3808 5.13751 12.5936 5.13751C12.8065 5.13751 12.9846 5.20935 13.1281 5.35301C13.2718 5.49651 13.3436 5.67468 13.3436 5.88751V17.2645L18.5129 12.0953C18.6615 11.9466 18.8355 11.8732 19.0349 11.875C19.2342 11.877 19.4115 11.9555 19.5666 12.1105C19.7115 12.2657 19.7865 12.4413 19.7916 12.6375C19.7968 12.8337 19.7218 13.0093 19.5666 13.1645L13.2264 19.5048C13.1327 19.5984 13.034 19.6644 12.9301 19.7028C12.8263 19.7413 12.7141 19.7605 12.5936 19.7605C12.4731 19.7605 12.361 19.7413 12.2571 19.7028C12.1533 19.6644 12.0545 19.5984 11.9609 19.5048L5.62062 13.1645C5.48212 13.026 5.41129 12.8545 5.40812 12.65C5.40495 12.4455 5.47579 12.2657 5.62062 12.1105C5.77579 11.9555 5.95396 11.878 6.15512 11.878C6.35646 11.878 6.53471 11.9555 6.68987 12.1105L11.8436 17.2645Z" fill="white"/>
</g>
</svg>
