<svg width="45" height="45" viewBox="0 0 45 45" fill="none" xmlns="http://www.w3.org/2000/svg">
<mask id="mask0_212_1773" style="mask-type:alpha" maskUnits="userSpaceOnUse" x="0" y="0" width="45" height="45">
<rect y="0.386536" width="44.2269" height="44.2269" fill="#D9D9D9"/>
</mask>
<g mask="url(#mask0_212_1773)">
<path d="M35.0132 38.6244C33.8627 38.6244 32.8379 38.2789 31.939 37.5878C31.04 36.8968 30.4475 36.0138 30.1616 34.9388H20.2709C18.3621 34.9388 16.733 34.2644 15.3838 32.9155C14.0349 31.5662 13.3604 29.9372 13.3604 28.0284C13.3604 26.1196 14.0349 24.4905 15.3838 23.1413C16.733 21.7924 18.3621 21.1179 20.2709 21.1179H23.9565C25.0968 21.1179 26.0729 20.7116 26.8847 19.8989C27.6967 19.0862 28.1027 18.1094 28.1027 16.9684C28.1027 15.8271 27.6967 14.8512 26.8847 14.0407C26.0729 13.2305 25.0968 12.8254 23.9565 12.8254H14.0658C13.7608 13.9003 13.1636 14.7833 12.2741 15.4744C11.3847 16.1654 10.3647 16.5109 9.21415 16.5109C7.80657 16.5109 6.60999 16.0185 5.6244 15.0335C4.63912 14.0485 4.14648 12.8526 4.14648 11.4456C4.14648 10.0383 4.63912 8.84157 5.6244 7.85537C6.60999 6.86886 7.80657 6.37561 9.21415 6.37561C10.3647 6.37561 11.3847 6.72113 12.2741 7.41218C13.1636 8.10322 13.7608 8.98623 14.0658 10.0612H23.9565C25.8653 10.0612 27.4943 10.7356 28.8435 12.0846C30.1925 13.4338 30.8669 15.0628 30.8669 16.9716C30.8669 18.8805 30.1925 20.5095 28.8435 21.8587C27.4943 23.2076 25.8653 23.8821 23.9565 23.8821H20.2709C19.1305 23.8821 18.1544 24.2884 17.3427 25.1011C16.5306 25.9138 16.1246 26.8906 16.1246 28.0316C16.1246 29.1729 16.5306 30.1488 17.3427 30.9593C18.1544 31.7695 19.1305 32.1747 20.2709 32.1747H30.1616C30.4666 31.0997 31.0638 30.2167 31.9532 29.5256C32.8427 28.8346 33.8627 28.4891 35.0132 28.4891C36.4208 28.4891 37.6174 28.9816 38.6029 29.9665C39.5882 30.9515 40.0809 32.1475 40.0809 33.5544C40.0809 34.9617 39.5882 36.1585 38.6029 37.1447C37.6174 38.1312 36.4208 38.6244 35.0132 38.6244ZM9.21415 13.7468C9.85452 13.7468 10.3985 13.5229 10.8459 13.0751C11.2937 12.6276 11.5176 12.0836 11.5176 11.4433C11.5176 10.8029 11.2937 10.259 10.8459 9.81149C10.3985 9.36369 9.85452 9.13979 9.21415 9.13979C8.57378 9.13979 8.02985 9.36369 7.58236 9.81149C7.13457 10.259 6.91067 10.8029 6.91067 11.4433C6.91067 12.0836 7.13457 12.6276 7.58236 13.0751C8.02985 13.5229 8.57378 13.7468 9.21415 13.7468Z" fill="white"/>
</g>
</svg>
