<svg width="70" height="71" viewBox="0 0 70 71" fill="none" xmlns="http://www.w3.org/2000/svg">
<mask id="mask0_167_76" style="mask-type:alpha" maskUnits="userSpaceOnUse" x="0" y="0" width="70" height="71">
<rect y="0.5" width="70" height="70" fill="#D9D9D9"/>
</mask>
<g mask="url(#mask0_167_76)">
<path d="M21.3143 60.2917C19.8642 60.2917 18.6229 59.7754 17.5904 58.7429C16.5579 57.7104 16.0417 56.4692 16.0417 55.0191V18H15.3125C14.6927 18 14.1733 17.7903 13.7543 17.3707C13.3348 16.9512 13.125 16.4316 13.125 15.8118C13.125 15.1915 13.3348 14.6721 13.7543 14.2536C14.1733 13.8345 14.6927 13.625 15.3125 13.625H26.25C26.25 12.9109 26.5016 12.3023 27.0047 11.7992C27.5073 11.2965 28.1157 11.0452 28.8298 11.0452H41.1702C41.8843 11.0452 42.4927 11.2965 42.9953 11.7992C43.4984 12.3023 43.75 12.9109 43.75 13.625H54.6875C55.3073 13.625 55.8267 13.8348 56.2457 14.2543C56.6652 14.6738 56.875 15.1935 56.875 15.8132C56.875 16.4335 56.6652 16.9529 56.2457 17.3715C55.8267 17.7905 55.3073 18 54.6875 18H53.9583V55.0191C53.9583 56.4692 53.4421 57.7104 52.4096 58.7429C51.3771 59.7754 50.1358 60.2917 48.6857 60.2917H21.3143ZM49.5833 18H20.4167V55.0191C20.4167 55.2811 20.5008 55.4962 20.669 55.6644C20.8372 55.8326 21.0523 55.9167 21.3143 55.9167H48.6857C48.9477 55.9167 49.1628 55.8326 49.331 55.6644C49.4992 55.4962 49.5833 55.2811 49.5833 55.0191V18ZM29.6166 50.0834C30.2364 50.0834 30.7558 49.8738 31.1748 49.4548C31.5933 49.0353 31.8026 48.5156 31.8026 47.8959V26.0209C31.8026 25.4011 31.5928 24.8814 31.1733 24.4619C30.7543 24.0429 30.2347 23.8334 29.6144 23.8334C28.9946 23.8334 28.4752 24.0429 28.0561 24.4619C27.6376 24.8814 27.4283 25.4011 27.4283 26.0209V47.8959C27.4283 48.5156 27.6378 49.0353 28.0569 49.4548C28.4764 49.8738 28.9963 50.0834 29.6166 50.0834ZM40.3856 50.0834C41.0054 50.0834 41.5248 49.8738 41.9439 49.4548C42.3624 49.0353 42.5717 48.5156 42.5717 47.8959V26.0209C42.5717 25.4011 42.3622 24.8814 41.9431 24.4619C41.5236 24.0429 41.0037 23.8334 40.3834 23.8334C39.7636 23.8334 39.2442 24.0429 38.8252 24.4619C38.4067 24.8814 38.1974 25.4011 38.1974 26.0209V47.8959C38.1974 48.5156 38.4072 49.0353 38.8267 49.4548C39.2457 49.8738 39.7653 50.0834 40.3856 50.0834Z" fill="#1F299C"/>
</g>
</svg>
