<svg width="30" height="31" viewBox="0 0 30 31" fill="none" xmlns="http://www.w3.org/2000/svg">
<g id="favorite">
<mask id="mask0_167_140" style="mask-type:alpha" maskUnits="userSpaceOnUse" x="0" y="0" width="30" height="31">
<rect id="Bounding box" y="0.5" width="30" height="30" fill="#D9D9D9"/>
</mask>
<g mask="url(#mask0_167_140)">
<path id="favorite_2" d="M14.9881 25.1369C14.7204 25.1369 14.4516 25.0889 14.1816 24.9928C13.9116 24.8966 13.674 24.7459 13.4688 24.5409L11.6731 22.9087C9.45688 20.8879 7.47813 18.9027 5.73688 16.9531C3.99563 15.0035 3.125 12.915 3.125 10.6875C3.125 8.91354 3.72313 7.42833 4.91938 6.23187C6.11583 5.03562 7.60104 4.4375 9.375 4.4375C10.3829 4.4375 11.3785 4.6699 12.3619 5.13469C13.345 5.59948 14.2244 6.35427 15 7.39906C15.7756 6.35427 16.655 5.59948 17.6381 5.13469C18.6215 4.6699 19.6171 4.4375 20.625 4.4375C22.399 4.4375 23.8842 5.03562 25.0806 6.23187C26.2769 7.42833 26.875 8.91354 26.875 10.6875C26.875 12.9392 25.9896 15.0509 24.2188 17.0228C22.4479 18.9947 20.4735 20.963 18.2956 22.9278L16.5191 24.5409C16.3141 24.7459 16.0746 24.8966 15.8006 24.9928C15.5265 25.0889 15.2556 25.1369 14.9881 25.1369ZM14.1009 9.29812C13.4247 8.26771 12.7127 7.5125 11.965 7.0325C11.2175 6.5525 10.3542 6.3125 9.375 6.3125C8.125 6.3125 7.08333 6.72917 6.25 7.5625C5.41667 8.39583 5 9.4375 5 10.6875C5 11.6906 5.32333 12.7395 5.97 13.8341C6.61667 14.9286 7.42833 16.0168 8.405 17.0984C9.38167 18.1803 10.4398 19.2372 11.5794 20.2691C12.7188 21.3011 13.7748 22.2603 14.7475 23.1466C14.8196 23.2107 14.9038 23.2428 15 23.2428C15.0962 23.2428 15.1804 23.2107 15.2525 23.1466C16.2252 22.2603 17.2813 21.3011 18.4206 20.2691C19.5602 19.2372 20.6183 18.1803 21.595 17.0984C22.5717 16.0168 23.3833 14.9286 24.03 13.8341C24.6767 12.7395 25 11.6906 25 10.6875C25 9.4375 24.5833 8.39583 23.75 7.5625C22.9167 6.72917 21.875 6.3125 20.625 6.3125C19.6458 6.3125 18.7825 6.5525 18.035 7.0325C17.2873 7.5125 16.5753 8.26771 15.8991 9.29812C15.7932 9.45833 15.6602 9.57854 15.5 9.65875C15.3398 9.73875 15.1731 9.77875 15 9.77875C14.8269 9.77875 14.6602 9.73875 14.5 9.65875C14.3398 9.57854 14.2068 9.45833 14.1009 9.29812Z" fill="white"/>
</g>
</g>
</svg>
