<svg width="70" height="71" viewBox="0 0 70 71" fill="none" xmlns="http://www.w3.org/2000/svg">
<mask id="mask0_167_70" style="mask-type:alpha" maskUnits="userSpaceOnUse" x="0" y="0" width="70" height="71">
<rect y="0.5" width="70" height="70" fill="#D9D9D9"/>
</mask>
<g mask="url(#mask0_167_70)">
<path d="M30.6695 43.2124L25.7899 65.0816C25.663 65.594 25.3879 66.0174 24.9645 66.3518C24.5411 66.6868 24.0535 66.8542 23.5018 66.8542C22.759 66.8542 22.1647 66.5784 21.719 66.0266C21.2732 65.4754 21.1288 64.85 21.2858 64.1505L29.5254 22.0892C29.7612 20.9036 30.3231 20.0004 31.2113 19.3796C32.0989 18.7589 33.0291 18.4485 34.0018 18.4485C34.992 18.4485 35.9068 18.6636 36.7464 19.0938C37.5859 19.524 38.2638 20.1691 38.78 21.029L41.6967 25.6957C42.6091 27.1613 43.8749 28.5214 45.4942 29.7761C47.1134 31.0307 49.0187 31.9816 51.2101 32.6286V28.9376C51.2101 28.4354 51.3742 28.02 51.7023 27.6914C52.0304 27.3628 52.4456 27.1985 52.9477 27.1985C53.4494 27.1985 53.8648 27.3628 54.1939 27.6914C54.523 28.02 54.6875 28.4354 54.6875 28.9376V65.1152C54.6875 65.6178 54.5234 66.0332 54.1953 66.3613C53.8672 66.6899 53.4521 66.8542 52.9499 66.8542C52.4482 66.8542 52.0329 66.6899 51.7038 66.3613C51.3747 66.0332 51.2101 65.6178 51.2101 65.1152V37.11C48.7645 36.5753 46.447 35.6452 44.2575 34.3195C42.0681 32.9939 40.1134 31.3027 38.3935 29.246L36.279 39.8473L41.669 44.9457C41.9422 45.2184 42.1422 45.5188 42.2691 45.8469C42.3964 46.1751 42.4601 46.5141 42.4601 46.8641V64.6667C42.4601 65.2865 42.2504 65.8059 41.8308 66.2249C41.4113 66.6445 40.8914 66.8542 40.2712 66.8542C39.6514 66.8542 39.132 66.6445 38.7129 66.2249C38.2944 65.8059 38.0851 65.2865 38.0851 64.6667V49.4942L30.6695 43.2124ZM18.8125 37.4294L15.9352 36.8855C15.3446 36.7581 14.8772 36.4506 14.533 35.9631C14.1889 35.475 14.0805 34.9206 14.2078 34.2998L16.3953 22.8519C16.668 21.4048 17.4261 20.3025 18.6696 19.5452C19.9131 18.7883 21.264 18.5613 22.7223 18.8641C23.38 18.991 23.8829 19.3264 24.2309 19.8704C24.5785 20.4148 24.6889 21.0159 24.562 21.6736L21.9027 35.3484C21.77 36.0839 21.4052 36.6465 20.8082 37.0364C20.2108 37.4258 19.5456 37.5568 18.8125 37.4294ZM38.8143 16.0933C37.3336 16.0933 36.0658 15.5658 35.0109 14.511C33.9566 13.4566 33.4294 12.1891 33.4294 10.7084C33.4294 9.22769 33.9566 7.96015 35.0109 6.90577C36.0658 5.85091 37.3336 5.32349 38.8143 5.32349C40.295 5.32349 41.5625 5.85091 42.6169 6.90577C43.6713 7.96015 44.1985 9.22769 44.1985 10.7084C44.1985 12.1891 43.6713 13.4566 42.6169 14.511C41.5625 15.5658 40.295 16.0933 38.8143 16.0933Z" fill="#1F299C"/>
</g>
</svg>
