<svg width="70" height="71" viewBox="0 0 70 71" fill="none" xmlns="http://www.w3.org/2000/svg">
<mask id="mask0_167_73" style="mask-type:alpha" maskUnits="userSpaceOnUse" x="0" y="0" width="70" height="71">
<rect y="0.5" width="70" height="70" fill="#D9D9D9"/>
</mask>
<g mask="url(#mask0_167_73)">
<path d="M13.1265 35.1354C11.2894 35.1354 9.73632 34.5013 8.46708 33.233C7.19736 31.9643 6.5625 30.4114 6.5625 28.5744C6.5625 26.7374 7.19663 25.1842 8.4649 23.915C9.73365 22.6453 11.2865 22.0104 13.1235 22.0104C14.9606 22.0104 16.5137 22.6446 17.7829 23.9128C19.0526 25.1816 19.6875 26.7344 19.6875 28.5715C19.6875 30.4085 19.0534 31.9616 17.7851 33.2308C16.5164 34.5006 14.9635 35.1354 13.1265 35.1354ZM26.2515 23.4687C24.4144 23.4687 22.8613 22.8346 21.5921 21.5664C20.3224 20.2976 19.6875 18.7447 19.6875 16.9077C19.6875 15.0707 20.3216 13.5176 21.5899 12.2483C22.8586 10.9786 24.4115 10.3438 26.2485 10.3438C28.0856 10.3438 29.6387 10.9779 30.9079 12.2461C32.1776 13.5149 32.8125 15.0678 32.8125 16.9048C32.8125 18.7418 32.1784 20.2949 30.9101 21.5642C29.6414 22.8339 28.0885 23.4687 26.2515 23.4687ZM43.7515 23.4687C41.9144 23.4687 40.3613 22.8346 39.0921 21.5664C37.8224 20.2976 37.1875 18.7447 37.1875 16.9077C37.1875 15.0707 37.8216 13.5176 39.0899 12.2483C40.3587 10.9786 41.9115 10.3438 43.7485 10.3438C45.5856 10.3438 47.1387 10.9779 48.4079 12.2461C49.6776 13.5149 50.3125 15.0678 50.3125 16.9048C50.3125 18.7418 49.6784 20.2949 48.4101 21.5642C47.1414 22.8339 45.5885 23.4687 43.7515 23.4687ZM56.8765 35.1354C55.0395 35.1354 53.4863 34.5013 52.2171 33.233C50.9474 31.9643 50.3125 30.4114 50.3125 28.5744C50.3125 26.7374 50.9466 25.1842 52.2149 23.915C53.4837 22.6453 55.0365 22.0104 56.8735 22.0104C58.7106 22.0104 60.2637 22.6446 61.5329 23.9128C62.8026 25.1816 63.4375 26.7344 63.4375 28.5715C63.4375 30.4085 62.8034 31.9616 61.5351 33.2308C60.2664 34.5006 58.7135 35.1354 56.8765 35.1354ZM19.3958 64.3021C17.3955 64.3021 15.7286 63.5357 14.3952 62.003C13.0623 60.4708 12.3958 58.6608 12.3958 56.5729C12.3958 54.12 13.2446 51.9969 14.9421 50.2036C16.6401 48.4109 18.3116 46.6188 19.9566 44.8275C21.3663 43.3021 22.5864 41.6568 23.617 39.8918C24.6471 38.1267 25.8575 36.4664 27.2482 34.9108C28.2618 33.7408 29.4233 32.7564 30.7329 31.9577C32.0425 31.1595 33.4649 30.7604 35 30.7604C36.556 30.7604 37.9976 31.1401 39.3247 31.8994C40.6518 32.6582 41.8129 33.6321 42.8079 34.8211C44.169 36.3767 45.3673 38.0445 46.4027 39.8247C47.4386 41.6043 48.6522 43.2719 50.0434 44.8275C51.6884 46.6188 53.3599 48.4109 55.0579 50.2036C56.7554 51.9969 57.6042 54.12 57.6042 56.5729C57.6042 58.6608 56.9377 60.4708 55.6048 62.003C54.2714 63.5357 52.6045 64.3021 50.6042 64.3021C47.9792 64.3021 45.3785 64.0833 42.8021 63.6458C40.2257 63.2083 37.625 62.9896 35 62.9896C32.375 62.9896 29.7743 63.2083 27.1979 63.6458C24.6215 64.0833 22.0208 64.3021 19.3958 64.3021Z" fill="#1F299C"/>
</g>
</svg>
