<svg width="70" height="71" viewBox="0 0 70 71" fill="none" xmlns="http://www.w3.org/2000/svg">
<mask id="mask0_167_67" style="mask-type:alpha" maskUnits="userSpaceOnUse" x="0" y="0" width="70" height="71">
<rect y="0.5" width="70" height="70" fill="#D9D9D9"/>
</mask>
<g mask="url(#mask0_167_67)">
<path d="M28.8415 25.8356L33.4629 18.1852L29.4693 11.5724C28.9423 10.675 28.1694 10.2264 27.1505 10.2264C26.1316 10.2264 25.3585 10.675 24.831 11.5724L19.6088 20.3056C19.2573 20.9298 19.162 21.6009 19.3229 22.3189C19.4838 23.0368 19.8766 23.5716 20.5013 23.923L25.2233 26.7442C25.848 27.0956 26.5147 27.1882 27.2234 27.022C27.9317 26.8557 28.471 26.4603 28.8415 25.8356ZM53.5092 46.3814L48.9154 38.7309C48.5154 38.1063 48.4108 37.435 48.6019 36.717C48.7924 35.999 49.2 35.4643 49.8247 35.1128L54.6204 32.3646C55.2446 32.0131 55.9081 31.9205 56.611 32.0868C57.314 32.2535 57.8412 32.649 58.1926 33.2731L61.1771 38.2315C61.6554 39.0019 61.9238 39.8602 61.9821 40.8061C62.0399 41.7521 61.8445 42.6252 61.3958 43.4253C60.9472 44.3416 60.2814 45.0633 59.3987 45.5902C58.5164 46.1176 57.5629 46.3814 56.5381 46.3814H53.5092ZM43.5145 62.9728L36.8455 56.3039C36.3181 55.7764 36.0544 55.1613 36.0544 54.4583C36.0544 53.7554 36.3181 53.1402 36.8455 52.6128L43.5145 45.9439C43.9442 45.5136 44.4274 45.4062 44.9641 45.6216C45.5007 45.8364 45.7691 46.2467 45.7691 46.8524V49.0734H58.5572L54.6649 56.8872C54.1676 57.7845 53.49 58.5016 52.632 59.0382C51.7735 59.5744 50.8322 59.8425 49.8079 59.8425H45.7691V62.0643C45.7691 62.67 45.5007 63.0802 44.9641 63.2951C44.4274 63.51 43.9442 63.4025 43.5145 62.9728ZM19.7101 59.8425C18.8127 59.8425 17.9956 59.6109 17.2586 59.1476C16.5222 58.6839 15.9782 58.0667 15.6268 57.2963C15.2753 56.5749 15.1071 55.8214 15.1222 55.0358C15.1368 54.2508 15.3441 53.5216 15.7442 52.8483L18.0272 49.0734H26.9792C27.7307 49.0734 28.358 49.325 28.8611 49.8281C29.3638 50.3308 29.6151 50.9581 29.6151 51.7101V57.2066C29.6151 57.9581 29.3638 58.5854 28.8611 59.0885C28.358 59.5912 27.7307 59.8425 26.9792 59.8425H19.7101ZM13.0521 52.1753L8.67708 43.4253C8.25854 42.6067 8.06604 41.7363 8.09958 40.8142C8.13313 39.8925 8.39854 39.0316 8.89583 38.2315L9.95021 36.4311L8.06604 35.3206C7.58722 35.0178 7.39181 34.5662 7.47979 33.9658C7.56778 33.366 7.89955 33.0024 8.4751 32.875L17.5561 30.6087C18.2591 30.4333 18.9255 30.5334 19.5555 30.9092C20.186 31.2849 20.589 31.8243 20.7645 32.5272L23.0307 41.6527C23.1576 42.2288 22.9819 42.6925 22.5035 43.044C22.0247 43.3954 21.5459 43.4197 21.0671 43.1169L19.1829 41.9334L13.0521 52.1753ZM46.8351 28.5L37.7541 26.2337C37.178 26.1069 36.8584 25.7433 36.7952 25.1429C36.7315 24.5431 36.9389 24.0917 37.4172 23.7889L39.3021 22.6783L30.889 8.68927H40.3849C41.3309 8.68927 42.2161 8.92576 43.0405 9.39875C43.865 9.87173 44.5258 10.5083 45.0231 11.3084L48.5341 17.1753L50.3183 16.0648C50.7967 15.7619 51.2799 15.7816 51.7679 16.1239C52.256 16.4661 52.4363 16.9252 52.309 17.5012L50.0434 26.5816C49.8675 27.2845 49.4645 27.8241 48.8345 28.2003C48.2045 28.5761 47.538 28.676 46.8351 28.5Z" fill="#1F299C"/>
</g>
</svg>
