<svg width="44" height="45" viewBox="0 0 44 45" fill="none" xmlns="http://www.w3.org/2000/svg">
<mask id="mask0_390_457" style="mask-type:alpha" maskUnits="userSpaceOnUse" x="0" y="0" width="44" height="45">
<rect y="0.5" width="44" height="44" fill="#D9D9D9"/>
</mask>
<g mask="url(#mask0_390_457)">
<path d="M19.4404 28.6348C20.0915 29.2856 20.9301 29.5947 21.9562 29.562C22.9819 29.529 23.7346 29.1588 24.2144 28.4515L31.6087 17.7407C31.8711 17.3456 31.8413 16.987 31.5193 16.665C31.1972 16.3432 30.8384 16.3133 30.4427 16.5751L19.7154 23.9525C18.9964 24.4322 18.608 25.1696 18.5503 26.1648C18.4928 27.1603 18.7895 27.9837 19.4404 28.6348ZM22.0002 8.75C23.2059 8.75 24.3581 8.85939 25.4569 9.07817C26.556 9.29664 27.6273 9.63382 28.6707 10.0897C29.042 10.2379 29.4116 10.5024 29.7795 10.8831C30.1473 11.2638 30.2413 11.6245 30.0613 11.9652C29.8817 12.3062 29.4933 12.5325 28.8962 12.644C28.2992 12.7558 27.8057 12.7377 27.4158 12.5895C26.5578 12.2203 25.6833 11.9466 24.7923 11.7681C23.9016 11.5894 22.9709 11.5 22.0002 11.5C17.9363 11.5 14.4759 12.9285 11.6189 15.7854C8.76197 18.6424 7.3335 22.1028 7.3335 26.1667C7.3335 27.45 7.50919 28.7181 7.86058 29.9708C8.21197 31.2236 8.7085 32.4 9.35016 33.5H34.6502C35.3529 32.3389 35.8647 31.1319 36.1856 29.8792C36.5064 28.6264 36.6668 27.3278 36.6668 25.9833C36.6668 25.1183 36.5805 24.2304 36.4079 23.3195C36.2349 22.4089 35.9639 21.534 35.5948 20.6946C35.4469 20.3047 35.4163 19.924 35.5031 19.5525C35.5902 19.1812 35.7958 18.8737 36.12 18.6298C36.421 18.4083 36.7496 18.3469 37.1059 18.4456C37.4619 18.5443 37.714 18.7605 37.8622 19.0941C38.3908 20.2458 38.7773 21.3792 39.0217 22.4945C39.2662 23.6098 39.3979 24.7539 39.4168 25.927C39.4355 27.5864 39.2486 29.1547 38.8563 30.6317C38.4636 32.1091 37.8725 33.5541 37.083 34.9667C36.8407 35.3639 36.4998 35.6771 36.0605 35.9062C35.6208 36.1354 35.1507 36.25 34.6502 36.25H9.35016C8.86127 36.25 8.40004 36.1325 7.96645 35.8975C7.53287 35.6623 7.18316 35.3284 6.91733 34.8961C6.217 33.6739 5.65294 32.3412 5.22516 30.898C4.79738 29.4549 4.5835 27.8778 4.5835 26.1667C4.5835 23.7717 5.03786 21.5202 5.94658 19.4122C6.8553 17.3042 8.0957 15.4579 9.66779 13.8733C11.2402 12.2886 13.0886 11.0386 15.2132 10.1232C17.338 9.20772 19.6003 8.75 22.0002 8.75Z" fill="white"/>
</g>
</svg>
