<svg width="30" height="30" viewBox="0 0 30 30" fill="none" xmlns="http://www.w3.org/2000/svg">
<mask id="mask0_243_368" style="mask-type:alpha" maskUnits="userSpaceOnUse" x="0" y="0" width="30" height="30">
<rect width="30" height="30" fill="#D9D9D9"/>
</mask>
<g mask="url(#mask0_243_368)">
<path d="M14.9997 6.51436C14.7338 6.51436 14.5112 6.42457 14.3319 6.24499C14.1523 6.06519 14.0625 5.84249 14.0625 5.57686V2.83655C14.0625 2.57092 14.1524 2.34832 14.3322 2.16874C14.512 1.98894 14.7347 1.89905 15.0003 1.89905C15.2661 1.89905 15.4887 1.98894 15.6681 2.16874C15.8477 2.34832 15.9375 2.57092 15.9375 2.83655V5.57686C15.9375 5.84249 15.8476 6.06519 15.6678 6.24499C15.488 6.42457 15.2653 6.51436 14.9997 6.51436ZM20.9953 9.00467C20.8222 8.83176 20.7376 8.61749 20.7415 8.36186C20.7455 8.10624 20.834 7.88144 21.0072 7.68748L22.9134 5.73811C23.1015 5.54415 23.3249 5.44717 23.5834 5.44717C23.842 5.44717 24.069 5.54499 24.2647 5.74061C24.444 5.91999 24.5337 6.13863 24.5337 6.39655C24.5337 6.65467 24.4431 6.87426 24.2619 7.0553L22.3125 9.00467C22.1314 9.18592 21.9119 9.27655 21.6537 9.27655C21.3958 9.27655 21.1763 9.18592 20.9953 9.00467ZM24.4231 15.9375C24.1575 15.9375 23.9348 15.8476 23.755 15.6678C23.5754 15.488 23.4856 15.2653 23.4856 14.9997C23.4856 14.7338 23.5754 14.5112 23.755 14.3319C23.9348 14.1523 24.1575 14.0625 24.4231 14.0625H27.1634C27.429 14.0625 27.6517 14.1524 27.8312 14.3322C28.011 14.512 28.1009 14.7347 28.1009 15.0003C28.1009 15.2661 28.011 15.4887 27.8312 15.6681C27.6517 15.8477 27.429 15.9375 27.1634 15.9375H24.4231ZM14.9997 28.1009C14.7338 28.1009 14.5112 28.011 14.3319 27.8312C14.1523 27.6517 14.0625 27.429 14.0625 27.1634V24.435C14.0625 24.1694 14.1524 23.9468 14.3322 23.7672C14.512 23.5874 14.7347 23.4975 15.0003 23.4975C15.2661 23.4975 15.4887 23.5874 15.6681 23.7672C15.8477 23.9468 15.9375 24.1694 15.9375 24.435V27.1634C15.9375 27.429 15.8476 27.6517 15.6678 27.8312C15.488 28.011 15.2653 28.1009 14.9997 28.1009ZM7.69967 9.00467L5.73811 7.08655C5.54415 6.89926 5.44717 6.6729 5.44717 6.40748C5.44717 6.14228 5.54415 5.91915 5.73811 5.73811C5.91915 5.56498 6.14134 5.47842 6.40467 5.47842C6.66801 5.47842 6.88488 5.56498 7.0553 5.73811L9.01686 7.69967C9.18999 7.87009 9.27655 8.08697 9.27655 8.3503C9.27655 8.61363 9.19082 8.83176 9.01936 9.00467C8.83228 9.1778 8.61405 9.26436 8.36467 9.26436C8.11509 9.26436 7.89342 9.1778 7.69967 9.00467ZM22.9256 24.2619L21.0072 22.3125C20.834 22.1185 20.7455 21.8937 20.7415 21.6381C20.7376 21.3825 20.8213 21.1682 20.9928 20.9953C21.1643 20.8222 21.3786 20.7356 21.6359 20.7356C21.893 20.7356 22.1185 20.8261 22.3125 21.0072L24.2619 22.9256C24.4479 23.0985 24.5377 23.316 24.5312 23.5781C24.5248 23.8402 24.4338 24.0681 24.2584 24.2619C24.067 24.4558 23.8396 24.5528 23.5762 24.5528C23.3127 24.5528 23.0958 24.4558 22.9256 24.2619ZM2.83655 15.9375C2.57092 15.9375 2.34832 15.8476 2.16874 15.6678C1.98894 15.488 1.89905 15.2653 1.89905 14.9997C1.89905 14.7338 1.98894 14.5112 2.16874 14.3319C2.34832 14.1523 2.57092 14.0625 2.83655 14.0625H5.57686C5.84249 14.0625 6.06519 14.1524 6.24499 14.3322C6.42457 14.512 6.51436 14.7347 6.51436 15.0003C6.51436 15.2661 6.42457 15.4887 6.24499 15.6681C6.06519 15.8477 5.84249 15.9375 5.57686 15.9375H2.83655ZM5.74999 24.2619C5.57686 24.0808 5.48832 23.8593 5.48436 23.5972C5.4804 23.3353 5.56499 23.1178 5.73811 22.9447L7.67561 21.0072C7.85665 20.8261 8.07301 20.7356 8.32467 20.7356C8.57613 20.7356 8.79884 20.8253 8.9928 21.0047C9.18676 21.2003 9.28374 21.4259 9.28374 21.6815C9.28374 21.9372 9.18676 22.1619 8.9928 22.3556L7.08655 24.2619C6.89259 24.4558 6.66394 24.5528 6.40061 24.5528C6.13728 24.5528 5.9204 24.4558 5.74999 24.2619ZM15.0028 21.875C13.0938 21.875 11.4703 21.2069 10.1322 19.8706C8.79405 18.5344 8.12499 16.9118 8.12499 15.0028C8.12499 13.0938 8.79311 11.4703 10.1294 10.1322C11.4656 8.79405 13.0882 8.12499 14.9972 8.12499C16.9061 8.12499 18.5297 8.79311 19.8678 10.1294C21.2059 11.4656 21.875 13.0882 21.875 14.9972C21.875 16.9061 21.2069 18.5297 19.8706 19.8678C18.5344 21.2059 16.9118 21.875 15.0028 21.875ZM15 20C16.375 20 17.5521 19.5104 18.5312 18.5312C19.5104 17.5521 20 16.375 20 15C20 13.625 19.5104 12.4479 18.5312 11.4687C17.5521 10.4896 16.375 9.99999 15 9.99999C13.625 9.99999 12.4479 10.4896 11.4687 11.4687C10.4896 12.4479 9.99999 13.625 9.99999 15C9.99999 16.375 10.4896 17.5521 11.4687 18.5312C12.4479 19.5104 13.625 20 15 20Z" fill="white"/>
</g>
</svg>
