<svg width="30" height="31" viewBox="0 0 30 31" fill="none" xmlns="http://www.w3.org/2000/svg">
<mask id="mask0_211_1290" style="mask-type:alpha" maskUnits="userSpaceOnUse" x="0" y="0" width="30" height="31">
<rect y="0.5" width="30" height="30" fill="#D9D9D9"/>
</mask>
<g mask="url(#mask0_211_1290)">
<path d="M14.9996 7.01448C14.7337 7.01448 14.5111 6.92469 14.3317 6.74511C14.1522 6.56532 14.0624 6.34261 14.0624 6.07698V3.33667C14.0624 3.07104 14.1523 2.84844 14.3321 2.66886C14.5118 2.48907 14.7346 2.39917 15.0002 2.39917C15.266 2.39917 15.4886 2.48907 15.668 2.66886C15.8476 2.84844 15.9374 3.07104 15.9374 3.33667V6.07698C15.9374 6.34261 15.8475 6.56532 15.6677 6.74511C15.4879 6.92469 15.2652 7.01448 14.9996 7.01448ZM20.9952 9.5048C20.8221 9.33188 20.7375 9.11761 20.7414 8.86198C20.7454 8.60636 20.8339 8.38157 21.0071 8.18761L22.9133 6.23823C23.1014 6.04427 23.3248 5.94729 23.5833 5.94729C23.8418 5.94729 24.0689 6.04511 24.2646 6.24073C24.4439 6.42011 24.5336 6.63875 24.5336 6.89667C24.5336 7.15479 24.443 7.37438 24.2617 7.55542L22.3124 9.5048C22.1313 9.68605 21.9117 9.77667 21.6536 9.77667C21.3957 9.77667 21.1762 9.68605 20.9952 9.5048ZM24.423 16.4376C24.1574 16.4376 23.9347 16.3477 23.7549 16.1679C23.5753 15.9881 23.4855 15.7654 23.4855 15.4998C23.4855 15.234 23.5753 15.0114 23.7549 14.832C23.9347 14.6524 24.1574 14.5626 24.423 14.5626H27.1633C27.4289 14.5626 27.6515 14.6525 27.8311 14.8323C28.0109 15.0121 28.1008 15.2348 28.1008 15.5004C28.1008 15.7663 28.0109 15.9889 27.8311 16.1682C27.6515 16.3478 27.4289 16.4376 27.1633 16.4376H24.423ZM14.9996 28.601C14.7337 28.601 14.5111 28.5112 14.3317 28.3314C14.1522 28.1518 14.0624 27.9292 14.0624 27.6635V24.9351C14.0624 24.6695 14.1523 24.4469 14.3321 24.2673C14.5118 24.0875 14.7346 23.9976 15.0002 23.9976C15.266 23.9976 15.4886 24.0875 15.668 24.2673C15.8476 24.4469 15.9374 24.6695 15.9374 24.9351V27.6635C15.9374 27.9292 15.8475 28.1518 15.6677 28.3314C15.4879 28.5112 15.2652 28.601 14.9996 28.601ZM7.69955 9.5048L5.73799 7.58667C5.54403 7.39938 5.44705 7.17302 5.44705 6.90761C5.44705 6.6424 5.54403 6.41927 5.73799 6.23823C5.91903 6.06511 6.14122 5.97854 6.40455 5.97854C6.66788 5.97854 6.88476 6.06511 7.05518 6.23823L9.01674 8.19979C9.18986 8.37021 9.27643 8.58709 9.27643 8.85042C9.27643 9.11375 9.1907 9.33188 9.01924 9.5048C8.83216 9.67792 8.61393 9.76448 8.36455 9.76448C8.11497 9.76448 7.8933 9.67792 7.69955 9.5048ZM22.9255 24.762L21.0071 22.8126C20.8339 22.6187 20.7454 22.3939 20.7414 22.1382C20.7375 21.8826 20.8212 21.6683 20.9927 21.4954C21.1641 21.3223 21.3785 21.2357 21.6358 21.2357C21.8929 21.2357 22.1184 21.3263 22.3124 21.5073L24.2617 23.4257C24.4478 23.5986 24.5376 23.8161 24.5311 24.0782C24.5247 24.3403 24.4337 24.5682 24.2583 24.762C24.0668 24.9559 23.8394 25.0529 23.5761 25.0529C23.3126 25.0529 23.0957 24.9559 22.9255 24.762ZM2.83643 16.4376C2.5708 16.4376 2.3482 16.3477 2.16861 16.1679C1.98882 15.9881 1.89893 15.7654 1.89893 15.4998C1.89893 15.234 1.98882 15.0114 2.16861 14.832C2.3482 14.6524 2.5708 14.5626 2.83643 14.5626H5.57674C5.84236 14.5626 6.06507 14.6525 6.24486 14.8323C6.42445 15.0121 6.51424 15.2348 6.51424 15.5004C6.51424 15.7663 6.42445 15.9889 6.24486 16.1682C6.06507 16.3478 5.84236 16.4376 5.57674 16.4376H2.83643ZM5.74986 24.762C5.57674 24.5809 5.4882 24.3594 5.48424 24.0973C5.48028 23.8354 5.56486 23.6179 5.73799 23.4448L7.67549 21.5073C7.85653 21.3263 8.07288 21.2357 8.32455 21.2357C8.57601 21.2357 8.79872 21.3254 8.99268 21.5048C9.18663 21.7004 9.28361 21.926 9.28361 22.1817C9.28361 22.4373 9.18663 22.662 8.99268 22.8557L7.08643 24.762C6.89247 24.9559 6.66382 25.0529 6.40049 25.0529C6.13716 25.0529 5.92028 24.9559 5.74986 24.762ZM15.0027 22.3751C13.0937 22.3751 11.4702 21.707 10.1321 20.3707C8.79393 19.0345 8.12486 17.4119 8.12486 15.5029C8.12486 13.594 8.79299 11.9704 10.1292 10.6323C11.4655 9.29417 13.0881 8.62511 14.9971 8.62511C16.906 8.62511 18.5296 9.29323 19.8677 10.6295C21.2058 11.9657 21.8749 13.5883 21.8749 15.4973C21.8749 17.4063 21.2067 19.0298 19.8705 20.3679C18.5342 21.706 16.9116 22.3751 15.0027 22.3751ZM14.9999 20.5001C16.3749 20.5001 17.5519 20.0105 18.5311 19.0314C19.5103 18.0522 19.9999 16.8751 19.9999 15.5001C19.9999 14.1251 19.5103 12.948 18.5311 11.9689C17.5519 10.9897 16.3749 10.5001 14.9999 10.5001C13.6249 10.5001 12.4478 10.9897 11.4686 11.9689C10.4894 12.948 9.99986 14.1251 9.99986 15.5001C9.99986 16.8751 10.4894 18.0522 11.4686 19.0314C12.4478 20.0105 13.6249 20.5001 14.9999 20.5001Z" fill="black"/>
</g>
</svg>
