<svg width="972" height="973" viewBox="0 0 972 973" fill="none" xmlns="http://www.w3.org/2000/svg">
<g clip-path="url(#clip0_312_1269)">
<path d="M542.776 535.759C541.869 536.731 540.925 537.605 539.784 538.244C537.885 539.311 535.847 539.475 533.721 538.731C533.116 538.518 532.526 538.236 531.909 537.929L531.356 537.66C530.792 537.392 530.228 537.135 529.67 536.882C527.762 536.012 525.792 535.102 523.426 533.701C521.742 532.698 519.651 531.46 517.928 528.934C517.051 527.641 516.354 526.227 515.717 524.9C514.242 521.821 512.443 518.408 510.378 514.759C509.459 513.127 508.502 511.481 507.551 509.83C505.606 506.457 503.591 502.967 501.873 499.713C501.442 498.898 501.032 498.103 500.649 497.333C499.737 495.501 499.114 494.074 498.703 492.833C498.078 490.95 497.997 489.45 498.041 488.52C498.108 487.086 498.418 486.137 499.012 485.628C499.42 485.275 499.941 485.132 500.581 485.191C502.001 485.339 503.748 486.328 506.05 487.712C508.622 489.254 511.45 490.85 514.014 492.209C514.272 492.346 514.531 492.474 514.784 492.596L516.033 493.215C517.625 493.998 519.27 494.809 521.134 495.97C521.9 496.447 522.657 496.998 523.456 497.589C523.932 497.94 524.414 498.296 524.916 498.641C528.496 501.134 531.712 503.762 534.468 506.456C537.251 509.176 540.203 512.342 543.744 516.43C544.836 517.686 546.189 519.247 547.327 520.846C547.707 521.375 548.092 521.952 548.316 522.542C548.659 523.451 548.556 524.242 548.424 524.831C548.306 525.372 548.146 525.831 547.99 526.275L547.9 526.541C547.605 527.422 547.23 528.281 546.877 529.117C546.589 529.788 546.316 530.421 546.085 531.052C545.592 532.399 544.998 533.228 544.262 534.07L544 534.372C543.589 534.845 543.182 535.313 542.77 535.754L542.776 535.759ZM499.361 486.201C498.985 486.604 498.767 487.381 498.716 488.52C498.677 489.392 498.756 490.808 499.348 492.599C499.748 493.808 500.355 495.211 501.256 497.011C501.64 497.782 502.049 498.566 502.475 499.376C504.193 502.62 506.203 506.105 508.142 509.473C509.094 511.124 510.05 512.78 510.969 514.412C513.044 518.072 514.844 521.494 516.324 524.589C516.956 525.901 517.642 527.284 518.488 528.548C520.13 530.957 522.153 532.162 523.784 533.126C526.118 534.508 528.078 535.408 529.964 536.279C530.528 536.537 531.092 536.794 531.655 537.062L532.214 537.336C532.815 537.628 533.39 537.906 533.958 538.105C535.888 538.781 537.744 538.632 539.466 537.669C541.028 536.792 542.175 535.478 543.507 533.954L543.774 533.646C544.474 532.843 545.002 532.096 545.459 530.85C545.7 530.198 545.988 529.527 546.266 528.878C546.615 528.058 546.984 527.204 547.269 526.356L547.359 526.089C547.51 525.661 547.655 525.219 547.768 524.715C547.885 524.184 547.97 523.551 547.681 522.807C547.485 522.283 547.11 521.727 546.768 521.253C545.726 519.796 544.591 518.469 543.223 516.883C539.697 512.81 536.756 509.654 533.984 506.944C531.243 504.274 528.059 501.666 524.511 499.192C524.003 498.842 523.516 498.481 523.035 498.125C522.252 497.549 521.506 496.998 520.756 496.536C518.912 495.394 517.357 494.625 515.712 493.814L514.463 493.195C514.205 493.068 513.941 492.936 513.672 492.798C511.098 491.44 508.259 489.834 505.677 488.283C503.443 486.942 501.759 485.981 500.475 485.847C500.025 485.798 499.681 485.89 499.423 486.114C499.397 486.141 499.371 486.169 499.34 486.202L499.361 486.201Z" fill="#FF5F00"/>
<path d="M625.882 555.118C624.986 556.079 623.811 556.913 622.382 557.572C619.285 558.999 615.551 559.511 611.943 560.007L611.228 560.103C601.772 561.41 590.663 563.105 579.878 565.804L577.334 566.435C571.991 567.769 566.47 569.144 561.119 570.635C552.829 572.947 544.65 575.651 536.736 578.262L533.326 579.386C526.209 581.728 517.876 583.927 509.12 580.385C507.257 579.627 505.473 578.624 503.742 577.66C502.528 576.982 501.278 576.28 499.997 575.663C491.806 571.708 483.238 570.86 475.853 570.372C469.065 569.924 461.519 568.811 457.799 561.254C456.099 557.778 455.978 554.332 455.86 551.001C455.843 550.551 455.831 550.096 455.813 549.646C455.443 541.094 453.113 531.612 448.683 520.646C444.546 510.397 439.075 499.813 433.782 489.58C431.739 485.62 429.621 481.528 427.624 477.54C426.405 475.102 425.325 472.887 424.32 470.772C422.471 466.87 420.446 462.348 419.821 458.049C419.167 453.537 420.306 449.645 423.062 447.116C426.22 444.198 431.077 443.216 437.095 444.287C440.61 444.913 444.17 446.076 447.945 447.306C449.97 447.966 452.062 448.648 454.154 449.247C463.335 451.864 472.747 452.52 480.674 451.097C481.733 450.909 482.833 450.644 484.047 450.29C485.584 449.845 487.088 449.296 488.539 448.772C492.702 447.256 497.001 445.691 502.692 446.282C507.157 446.741 512.022 448.708 516.235 450.511C531.566 457.08 546.916 467.031 563.154 480.938C578.303 493.851 592.101 507.723 607.285 523.206C613.162 529.184 619.241 535.371 624.12 542.047C625.749 544.28 627.463 546.9 627.805 549.418C628.093 551.513 627.39 553.501 625.877 555.124L625.882 555.118ZM423.024 448.072C420.805 450.451 419.905 453.916 420.489 457.919C421.102 462.124 423.105 466.594 424.932 470.456C425.932 472.565 427.007 474.776 428.232 477.208C430.223 481.192 432.341 485.284 434.384 489.244C439.682 499.492 445.159 510.092 449.312 520.365C453.769 531.398 456.116 540.958 456.487 549.583C456.51 550.038 456.522 550.493 456.539 550.943C456.652 554.206 456.771 557.579 458.412 560.927C461.98 568.178 469.023 569.235 475.932 569.692C483.924 570.22 492.411 571.23 500.307 575.044C501.598 575.67 502.865 576.377 504.084 577.06C505.793 578.014 507.556 579.008 509.388 579.747C517.943 583.205 526.136 581.04 533.138 578.736L536.549 577.612C544.468 574.995 552.658 572.301 560.963 569.984C566.319 568.487 571.85 567.111 577.193 565.777L579.737 565.146C590.548 562.44 601.688 560.743 611.155 559.436L611.87 559.34C615.432 558.852 619.118 558.348 622.116 556.963C625.675 555.318 627.554 552.538 627.142 549.522C626.818 547.145 625.158 544.616 623.576 542.449C618.725 535.807 612.656 529.641 606.795 523.678C591.622 508.205 577.834 494.343 562.706 481.45C546.517 467.588 531.224 457.669 515.951 451.124C511.78 449.339 506.973 447.396 502.598 446.948C497.058 446.374 492.833 447.915 488.743 449.405C487.28 449.941 485.766 450.49 484.203 450.942C482.963 451.303 481.837 451.574 480.762 451.768C472.742 453.206 463.214 452.546 453.944 449.908C451.842 449.31 449.744 448.622 447.709 447.963C443.96 446.737 440.421 445.583 436.942 444.961C432.892 444.238 427.276 444.109 423.493 447.611C423.328 447.767 423.163 447.933 423.009 448.099L423.024 448.072Z" fill="#FF5F00"/>
<path d="M670.586 572.981C669.154 574.515 667.181 575.823 664.746 576.793C659.951 578.71 654.146 579.221 648.528 579.71L647.556 579.795C629.377 581.398 613.596 583.484 599.305 586.186C588.213 588.278 579.163 590.17 570.826 592.128C558.386 595.059 545.307 598.685 529.668 603.535C518.783 606.916 507.143 609.798 495.07 604.833C492.448 603.75 489.941 602.331 487.518 600.948C485.761 599.949 483.945 598.916 482.09 598.022C470.852 592.588 458.87 591.899 448.625 591.944C438.381 591.989 428.241 590.624 423.471 580.383C421.27 575.646 421.414 571.022 421.561 566.545C421.582 565.863 421.609 565.175 421.619 564.493C421.855 552.759 419.188 539.732 413.456 524.682C407.984 510.173 400.311 495.182 392.892 480.674C390.347 475.699 387.716 470.55 385.222 465.52C383.549 462.143 382.08 459.11 380.734 456.244C378.209 450.875 375.457 444.654 374.773 438.844C374.045 432.622 376.027 427.295 380.197 424.218C384.736 420.874 392.057 419.93 400.82 421.569C405.359 422.417 410.053 423.812 414.599 425.162C417.847 426.127 421.211 427.128 424.541 427.942C437.665 431.141 450.868 431.265 461.722 428.29C463.265 427.87 464.847 427.334 466.423 426.708C468.582 425.852 470.675 424.831 472.706 423.846C478.394 421.078 484.284 418.211 492.227 418.569C498.484 418.831 505.096 421.179 511.314 423.675C533.398 432.548 555.08 446.32 579.556 467.013C602.892 486.695 624.518 508.497 643.603 527.735C652.163 536.348 661.015 545.266 668.009 554.814C670.359 558.018 672.813 561.783 673.223 565.386C673.543 568.193 672.588 570.823 670.57 572.987L670.586 572.981ZM378.92 426.237C376.108 429.251 374.852 433.684 375.441 438.744C376.113 444.461 378.838 450.615 381.342 455.944C382.688 458.81 384.152 461.837 385.825 465.204C388.313 470.23 390.949 475.373 393.494 480.348C400.924 494.865 408.602 509.872 414.091 524.417C419.845 539.55 422.529 552.654 422.294 564.472C422.278 565.159 422.257 565.842 422.236 566.534C422.093 570.933 421.953 575.478 424.089 580.072C428.713 589.99 438.632 591.315 448.668 591.271C458.985 591.222 471.067 591.921 482.421 597.412C484.292 598.321 486.123 599.358 487.886 600.363C490.293 601.73 492.773 603.146 495.364 604.21C507.237 609.09 518.747 606.231 529.517 602.888C545.172 598.032 558.266 594.4 570.727 591.468C579.069 589.505 588.124 587.618 599.232 585.519C613.544 582.816 629.346 580.729 647.546 579.125L648.518 579.04C654.083 578.553 659.831 578.052 664.543 576.171C670.098 573.95 673.109 569.956 672.597 565.473C672.204 562.02 669.799 558.353 667.502 555.208C660.535 545.696 651.699 536.803 643.155 528.204C624.08 508.977 602.465 487.185 579.15 467.523C554.722 446.874 533.093 433.141 511.077 424.291C504.918 421.818 498.368 419.487 492.206 419.231C484.43 418.884 478.628 421.71 473.013 424.442C470.972 425.439 468.858 426.46 466.684 427.323C465.087 427.96 463.484 428.498 461.91 428.929C450.946 431.937 437.623 431.814 424.394 428.59C421.043 427.777 417.674 426.771 414.42 425.801C409.679 424.393 405.206 423.059 400.704 422.225C392.125 420.623 384.991 421.525 380.608 424.756C380.003 425.203 379.451 425.699 378.946 426.24L378.92 426.237Z" fill="#FF5F00"/>
<path d="M737.643 599.863C735.413 602.253 732.262 604.238 728.322 605.663C720.964 608.327 712.04 608.819 703.413 609.299L702.106 609.37C676.505 610.823 651.741 613.325 628.51 616.792C613.662 619.005 599.176 621.565 585.452 624.393C565.208 628.561 544.613 633.744 524.235 639.79C507.535 644.766 491.128 648.652 474.046 641.556C470.276 639.99 466.692 637.927 463.224 635.931C460.654 634.452 457.994 632.921 455.279 631.607C438.912 623.67 421.309 623.56 407.811 624.348C394.657 625.117 378.693 624.08 372.01 609.123C369.064 602.525 369.596 596.146 370.115 589.982C370.203 588.918 370.292 587.866 370.36 586.814C371.526 570.518 368.35 552.185 360.648 530.766C353.154 509.881 342.205 488.283 331.613 467.388C328.312 460.872 324.893 454.131 321.643 447.539C319.295 442.778 317.248 438.515 315.371 434.504C311.667 426.579 307.987 418.161 307.227 410.091C306.381 401.219 309.54 393.874 315.911 389.938C324.356 384.715 337.17 385.746 346.437 387.525C352.404 388.673 358.489 390.353 364.373 391.982C369.549 393.413 374.898 394.892 380.168 396.009C399.176 400.04 418.065 399.357 433.358 394.091C435.685 393.278 437.931 392.359 440.046 391.348C443.126 389.875 446.103 388.141 448.993 386.47C456.991 381.832 465.254 377.038 476.576 377.029C485.926 377.017 496.129 380.453 503.976 383.458C535.832 395.644 567.685 415.568 604.215 446.163C637.957 474.405 668.553 504.987 698.134 534.561C710.714 547.132 723.72 560.13 733.892 573.995C737.317 578.666 740.89 584.145 741.408 589.367C741.792 593.266 740.449 596.886 737.664 599.872L737.643 599.863ZM312.735 393.365C308.976 397.395 307.228 403.238 307.874 410.003C308.623 417.969 312.281 426.326 315.958 434.205C317.829 438.211 319.882 442.469 322.219 447.23C325.469 453.822 328.883 460.558 332.184 467.074C342.782 487.984 353.741 509.603 361.252 530.524C368.986 552.025 372.169 570.447 371.004 586.837C370.931 587.894 370.842 588.957 370.759 590.015C370.254 596.099 369.727 602.389 372.608 608.834C379.134 623.437 394.83 624.442 407.785 623.684C421.367 622.892 439.075 623.006 455.573 631.004C458.309 632.327 460.98 633.869 463.561 635.347C467.013 637.328 470.581 639.387 474.314 640.939C491.196 647.951 507.483 644.098 524.063 639.155C544.462 633.098 565.078 627.914 585.337 623.739C599.072 620.911 613.568 618.35 628.432 616.13C651.689 612.657 676.469 610.16 702.091 608.706L703.403 608.629C711.983 608.156 720.855 607.668 728.125 605.034C736.675 601.954 741.39 596.132 740.729 589.446C740.234 584.38 736.715 578.992 733.333 574.392C723.193 560.567 710.198 547.59 697.639 535.039C668.063 505.47 637.478 474.897 603.757 446.675C567.28 416.13 535.486 396.239 503.698 384.076C495.909 381.094 485.779 377.675 476.534 377.691C465.394 377.706 457.209 382.448 449.289 387.045C446.389 388.728 443.397 390.468 440.295 391.952C438.16 392.975 435.883 393.906 433.53 394.726C418.122 400.04 399.108 400.731 379.985 396.674C374.693 395.548 369.334 394.069 364.153 392.633C358.279 391.004 352.21 389.328 346.269 388.184C337.123 386.424 324.487 385.405 316.223 390.508C314.917 391.313 313.749 392.277 312.73 393.37L312.735 393.365Z" fill="#FF5F00"/>
<path d="M761.995 621.732C761.218 622.565 760.398 623.37 759.536 624.145C754.115 628.978 746.52 631.545 739.169 634.031C737.623 634.55 736.082 635.074 734.563 635.618L731.539 636.689C712.043 643.62 691.891 650.785 669.74 657.232C650.356 662.894 629.484 667.714 609.294 672.367C581.497 678.781 552.751 685.414 526.517 694.503C525.153 694.976 523.779 695.46 522.4 695.938C519.881 696.819 517.346 697.707 514.79 698.574C500.235 703.496 484.632 708.03 467.923 704.801C463.694 703.984 459.723 702.623 455.51 701.181C452.086 700.01 448.541 698.799 444.854 697.91C434.382 695.39 423.29 692.62 412.953 688.986C396.057 683.043 379.676 676.228 362.893 668.141C353.875 663.796 343.509 658.545 334.664 651.194C325.248 643.36 317.888 635.514 308.346 624.612C307.665 623.832 306.957 623.058 306.244 622.29L305.484 621.457C299.051 614.403 293.577 608.089 288.289 601.991C285.455 598.718 282.777 595.631 280.003 592.487L279.933 592.36C277.768 584.466 274.509 576.192 271.049 567.442C266.935 557.02 262.681 546.248 259.82 534.94C256.052 520.359 254.366 507.153 252.734 494.379C252.277 490.783 251.838 487.391 251.363 484.006C250.625 478.754 249.492 473.382 248.398 468.192C246.319 458.345 244.171 448.166 244.339 437.494C244.442 430.777 243.256 423.27 241.995 415.322C240.954 408.767 239.884 401.998 239.533 395.457C239.152 388.226 240.453 382.544 243.515 378.101C248.183 371.287 256.356 367.824 263.744 365.33C266.133 364.524 268.618 363.776 271.013 363.048C274.988 361.852 279.103 360.611 282.815 359.088C286.653 357.517 289.806 355.616 292.86 353.768C297.07 351.222 301.042 348.826 306.21 347.68C313.495 346.073 321.892 346.658 330.786 347.274C334.787 347.548 338.925 347.836 343.018 347.917C358.495 348.19 374.885 347.323 390.423 345.402C401.155 344.089 411.007 342.326 419.713 340.175C422.977 339.379 426.213 338.506 429.35 337.654C440.527 334.629 451.08 331.775 463.651 331.981C466.101 332.015 468.609 332.177 471.109 332.455C482.693 333.752 495.203 337.854 506.24 341.481C523.778 347.237 544.364 354.278 564.136 362.873C587.405 372.933 611.098 385.753 636.575 402.085C670.653 423.806 705.045 450.053 738.798 480.102L739.743 480.941C747.725 488.046 755.978 495.393 762.304 503.358C769.259 512.117 770.798 521.118 772.147 529.056L772.354 530.281C774.12 540.518 775.211 548.978 775.792 556.91C776.082 560.866 776.251 564.781 776.364 567.746C776.643 575.511 776.786 582.551 775.675 590.031C775.599 590.517 775.522 591.003 775.441 591.495C773.883 600.581 770.285 612.834 761.975 621.743L761.995 621.732ZM280.562 592.09C283.32 595.219 285.983 598.291 288.8 601.538C294.088 607.637 299.557 613.946 305.989 620.989L306.75 621.822C307.463 622.601 308.171 623.374 308.858 624.16C318.372 635.037 325.717 642.868 335.101 650.672C343.887 657.98 354.211 663.212 363.198 667.538C379.964 675.61 396.319 682.421 413.195 688.355C423.5 691.98 434.571 694.74 445.033 697.262C448.745 698.154 452.301 699.375 455.741 700.55C459.933 701.983 463.883 703.334 468.07 704.143C484.617 707.344 500.13 702.831 514.597 697.94C517.148 697.068 519.683 696.18 522.197 695.305C523.576 694.826 524.95 694.343 526.314 693.87C552.59 684.768 581.351 678.128 609.169 671.714C629.343 667.057 650.21 662.241 669.579 656.586C691.704 650.146 711.855 642.98 731.335 636.056L734.359 634.985C735.879 634.441 737.425 633.922 738.976 633.397C746.259 630.93 753.792 628.387 759.105 623.65C769.033 614.793 773.123 601.225 774.806 591.398C774.888 590.917 774.964 590.431 775.041 589.955C776.137 582.534 776 575.531 775.721 567.797C775.608 564.832 775.444 560.932 775.149 556.992C774.574 549.086 773.489 540.641 771.723 530.426L771.516 529.201C770.173 521.341 768.652 512.427 761.797 503.794C755.503 495.869 747.272 488.542 739.311 481.457L738.367 480.618C704.64 450.594 670.269 424.367 636.228 402.659C610.777 386.352 587.116 373.541 563.879 363.5C544.127 354.915 523.557 347.878 506.036 342.126C495.024 338.513 482.551 334.414 471.036 333.129C468.552 332.856 466.069 332.698 463.635 332.658C451.158 332.457 440.647 335.299 429.516 338.305C426.385 339.151 423.138 340.025 419.869 340.827C411.143 342.989 401.26 344.754 390.501 346.074C374.937 348.001 358.51 348.875 343.002 348.594C338.894 348.509 334.75 348.226 330.743 347.947C321.897 347.334 313.542 346.757 306.351 348.338C301.292 349.452 297.362 351.825 293.209 354.341C290.134 356.201 286.955 358.119 283.071 359.708C279.327 361.243 275.201 362.484 271.211 363.687C268.821 364.409 266.336 365.158 263.962 365.958C256.69 368.413 248.631 371.818 244.09 378.463C241.121 382.774 239.854 388.313 240.228 395.393C240.573 401.897 241.643 408.656 242.684 415.19C243.95 423.164 245.142 430.697 245.035 437.472C244.866 448.07 247.007 458.213 249.076 468.029C250.17 473.23 251.308 478.607 252.052 483.884C252.527 487.269 252.961 490.667 253.423 494.268C255.055 507.021 256.74 520.206 260.497 534.746C263.352 546.018 267.596 556.769 271.698 567.171C275.148 575.911 278.407 584.175 280.583 592.088L280.562 592.09Z" fill="#FF5F00"/>
<path d="M757.669 624.86C753.385 629.452 747.721 632.8 742.209 636.05C740.824 636.864 739.444 637.684 738.091 638.517C721.755 648.529 701.868 660.029 678.213 669.387C654.937 678.635 628.289 685.233 602.506 691.615C578.063 697.668 552.785 703.923 529.929 712.499C525.985 713.982 521.975 715.547 517.876 717.153C503.794 722.631 487.83 728.83 470.992 727.772C466.257 727.474 461.685 726.513 456.851 725.503C453.696 724.842 450.431 724.161 447.075 723.663C433.351 721.628 419.802 718.044 407.895 713.296C387.295 705.013 367.931 694.363 348.69 680.741C339.481 674.227 327.632 665.373 317.565 654.63C314.305 651.156 311.24 647.781 308.271 644.516C301.359 636.913 294.835 629.734 286.022 621.296C284.716 620.047 283.326 618.813 281.979 617.618C267.623 604.888 254.4 594.846 241.612 585.137L241.564 585.092L241.527 585.037C239.406 581.107 237 577.047 234.45 572.748C226.798 559.851 218.127 545.228 214.859 529.462C211.15 511.541 213.721 496.793 215.989 483.774L216.234 482.352C217.115 477.258 217.573 472.245 218.063 466.942C218.785 459.017 219.53 450.824 221.807 441.86C224.221 432.345 222.833 421.15 221.367 409.294C220.639 403.382 219.882 397.266 219.63 391.344C219.252 382.279 221.052 375.658 225.28 370.507C231.347 363.077 241.459 359.833 252.157 356.897C253.272 356.595 254.393 356.288 255.513 355.991C262.371 354.151 269.464 352.239 275.272 349.162C280.427 346.434 283.925 342.811 287.315 339.315C290.777 335.731 294.053 332.346 298.848 330.068C306.121 326.601 315.698 325.985 325.844 325.332C328.672 325.152 331.599 324.961 334.489 324.704C351.095 323.202 368.143 321.534 383.774 319.886C396.583 318.559 406.784 317.37 415.865 316.136C417.588 315.906 419.301 315.666 421.003 315.426C435.56 313.407 449.308 311.5 464.983 313.114C467.603 313.38 470.288 313.757 472.974 314.219C482.937 315.966 493.414 319.204 503.549 322.34C505.789 323.036 508.023 323.726 510.257 324.406C517.064 326.472 523.902 328.462 530.508 330.381C544.561 334.467 557.837 338.334 571.144 342.932C596.238 351.536 621.721 362.989 649.056 377.937C687.825 399.14 725.264 424.865 760.344 454.396C769.29 461.925 778.539 469.715 784.9 478.622C792.902 489.823 791.596 501.023 790.448 510.905L790.434 511.047C789.106 522.473 787.458 532.56 785.412 541.872C784.692 545.165 783.885 548.521 783.102 551.765L782.501 554.26C781.852 556.957 781.208 559.701 780.559 562.482C779.246 568.071 777.895 573.851 776.327 579.872C776.179 580.436 776.031 581.01 775.877 581.579L775.451 583.184C771.708 597.231 767.836 611.757 759.586 622.591C758.991 623.378 758.359 624.12 757.689 624.838L757.669 624.86ZM447.185 723.012C450.568 723.514 453.838 724.2 457.003 724.861C461.817 725.872 466.362 726.819 471.05 727.114C487.747 728.164 503.628 721.99 517.647 716.537C521.751 714.925 525.761 713.36 529.71 711.882C552.603 703.299 577.901 697.032 602.366 690.978C628.123 684.603 654.755 678.011 677.984 668.781C701.587 659.437 721.443 647.96 737.753 637.964C739.112 637.125 740.496 636.311 741.886 635.491C748.192 631.763 754.716 627.908 759.042 622.228C767.204 611.498 771.062 597.041 774.785 583.058L775.211 581.453C775.364 580.884 775.513 580.32 775.661 579.746C777.224 573.74 778.575 567.961 779.888 562.372C780.541 559.586 781.18 556.847 781.835 554.145L782.436 551.649C783.219 548.405 784.021 545.055 784.746 541.767C786.792 532.476 788.435 522.416 789.759 511.005L789.772 510.863C790.907 501.102 792.199 490.034 784.341 479.04C778.028 470.199 768.806 462.434 759.892 454.924C724.844 425.422 687.436 399.717 648.704 378.537C621.406 363.604 595.955 352.169 570.893 343.575C557.601 338.981 544.331 335.119 530.288 331.032C523.676 329.108 516.839 327.118 510.026 325.058C507.792 324.378 505.558 323.688 503.313 322.998C493.199 319.871 482.738 316.637 472.817 314.898C470.146 314.431 467.472 314.063 464.873 313.796C449.277 312.183 435.571 314.088 421.055 316.105C419.348 316.339 417.635 316.579 415.912 316.809C406.826 318.038 396.615 319.228 383.8 320.561C368.164 322.204 351.116 323.872 334.505 325.379C331.604 325.637 328.672 325.823 325.839 326.009C315.76 326.663 306.247 327.275 299.093 330.678C294.418 332.903 291.182 336.244 287.767 339.778C284.346 343.318 280.801 346.979 275.548 349.76C269.667 352.873 262.538 354.791 255.649 356.644C254.533 356.946 253.413 357.243 252.298 357.555C241.715 360.453 231.722 363.654 225.778 370.931C221.658 375.944 219.908 382.416 220.283 391.303C220.535 397.194 221.286 403.294 222.014 409.196C223.492 421.114 224.881 432.372 222.442 442.009C220.186 450.919 219.435 459.086 218.718 466.985C218.233 472.303 217.775 477.327 216.89 482.447L216.644 483.87C214.386 496.825 211.83 511.514 215.511 529.306C218.751 544.964 227.395 559.541 235.025 572.397C237.57 576.68 239.97 580.726 242.086 584.65C254.276 593.904 268.081 604.396 282.443 617.121C283.79 618.316 285.185 619.555 286.501 620.814C295.331 629.267 301.859 636.451 308.782 644.064C311.746 647.324 314.811 650.699 318.071 654.173C328.101 664.871 339.923 673.7 349.105 680.199C368.304 693.793 387.631 704.419 408.184 712.677C420.044 717.412 433.545 720.984 447.217 723.01L447.185 723.012Z" fill="#FF5F00"/>
<path d="M734.208 646.415C722.561 658.902 706.655 673.847 684.37 685.907C659.298 699.518 628.132 707.703 597.997 715.612C574.774 721.708 550.758 728.015 529.344 736.8C525.335 738.449 521.129 740.277 516.842 742.234C514.977 743.085 513.116 743.941 511.251 744.802C498.094 750.874 484.491 757.148 469.931 758.701C463.417 759.397 456.85 759 449.895 758.583C448.25 758.484 446.569 758.381 444.872 758.296C429.231 757.487 412.329 753.242 395.994 746.005C370.413 734.625 347.068 718.868 324.612 697.85C311.035 685.135 299.256 672.237 289.608 659.523C277.596 643.683 268.125 631.205 251.08 617.175C249.114 615.558 247.045 613.989 245.462 612.802C227.077 599.038 207.858 588.286 189.282 577.886L185.193 575.6L185.161 575.57C184.289 574.674 183.396 573.759 182.488 572.828C169.137 559.178 152.529 542.19 149.74 522.463C147.145 504.104 156.156 490.357 164.3 480.434C171.081 472.174 178.476 462.534 186.607 448.028C193.256 436.165 191.485 421.092 189.611 405.13C188.878 398.882 188.121 392.427 187.917 386.197C187.547 374.858 190.082 366.777 195.788 360.723C203.921 352.133 217.015 349.224 230.866 346.143L231.528 345.996C241.671 343.741 252.158 341.404 260.049 336.253C266.687 331.925 270.311 325.911 273.807 320.099C276.599 315.456 279.493 310.662 283.863 306.913C291.854 300.07 304.358 297.188 317.597 294.145L317.941 294.064C333.5 290.439 351.406 287.713 369.733 286.175C380.623 285.278 392.341 284.697 405.548 284.412C425.724 284.041 442.967 284.558 461.578 288.291C464.386 288.856 467.315 289.513 470.278 290.243C477.688 292.087 485.374 294.455 492.807 296.744C498.579 298.525 504.541 300.359 510.446 301.976C523.382 305.515 536.347 308.235 548.887 310.858C557.58 312.679 566.571 314.563 575.326 316.679C603.016 323.308 631.683 333.199 660.53 346.078C704.416 365.531 745.921 390.557 783.905 420.454C794.194 428.554 803.917 436.602 809.851 445.977C818.433 459.525 814.295 473.028 809.327 485.695C804.183 498.807 798.853 510.714 793.029 522.108C791.657 524.802 790.218 527.537 788.824 530.18C787.71 532.3 786.586 534.431 785.483 536.571C779.779 547.592 775.497 557.152 772.009 566.647C771.763 567.326 771.517 568.005 771.266 568.689C768.771 575.673 766.763 583.008 764.819 590.093C761.947 600.566 758.977 611.391 754.463 620.869C751.005 628.12 745.579 634.022 740.328 639.737C739.432 640.708 738.542 641.683 737.662 642.659C736.555 643.877 735.413 645.123 734.223 646.399L734.208 646.415ZM444.92 757.638C446.622 757.729 448.298 757.826 449.953 757.925C456.876 758.344 463.418 758.737 469.88 758.044C484.329 756.502 497.886 750.246 510.985 744.204C512.846 743.348 514.711 742.486 516.577 741.635C520.869 739.672 525.08 737.84 529.099 736.19C550.56 727.387 574.597 721.079 597.841 714.971C627.939 707.069 659.058 698.892 684.063 685.322C708.533 672.079 725.291 655.337 737.158 642.23C738.044 641.25 738.939 640.279 739.835 639.308C745.05 633.632 750.444 627.763 753.852 620.609C758.341 611.19 761.172 600.876 764.168 589.95C766.117 582.849 768.125 575.504 770.635 568.493C770.876 567.809 771.127 567.125 771.373 566.446C774.871 556.919 779.163 547.337 784.882 536.29C785.991 534.144 787.11 532.019 788.223 529.888C789.617 527.245 791.051 524.505 792.423 521.821C798.237 510.449 803.557 498.553 808.691 485.473C817.639 462.665 813.886 453.642 809.271 446.354C803.391 437.07 793.705 429.058 783.463 420.991C745.521 391.124 704.058 366.127 660.22 346.698C631.41 333.832 602.78 323.954 575.126 317.34C566.388 315.228 557.396 313.344 548.709 311.517C536.164 308.889 523.188 306.17 510.231 302.621C504.325 301.004 498.348 299.166 492.576 297.385C485.153 295.096 477.473 292.732 470.083 290.898C467.132 290.168 464.213 289.51 461.41 288.95C442.862 285.224 425.656 284.71 405.522 285.079C392.33 285.368 380.628 285.943 369.748 286.839C351.458 288.37 333.583 291.094 318.05 294.713L317.706 294.794C304.561 297.821 292.136 300.683 284.273 307.409C279.981 311.086 277.25 315.62 274.356 320.425C270.814 326.308 267.154 332.392 260.377 336.806C252.377 342.021 241.827 344.372 231.627 346.646L230.965 346.792C217.213 349.852 204.223 352.734 196.235 361.17C190.637 367.108 188.187 375.001 188.549 386.147C188.753 392.345 189.51 398.79 190.237 405.023C192.123 421.1 193.907 436.276 187.151 448.339C178.994 462.893 171.574 472.561 164.777 480.849C149.446 499.53 149.024 512.835 150.366 522.345C153.126 541.859 169.654 558.763 182.936 572.348C183.834 573.269 184.716 574.174 185.577 575.06L189.588 577.304C208.184 587.713 227.419 598.48 245.842 612.268C247.429 613.46 249.515 615.033 251.486 616.655C268.584 630.734 278.076 643.243 290.083 659.067C299.741 671.792 311.494 684.664 325.044 697.355C347.442 718.329 370.734 734.036 396.246 745.394C412.507 752.593 429.331 756.827 444.894 757.634L444.92 757.638Z" fill="#FF5F00"/>
<path d="M719.561 697.529C714.304 703.165 708.64 708.184 702.492 712.69C676.761 731.561 641.47 741.327 607.33 750.774C584.106 757.201 560.091 763.849 539.032 773.327C534.526 775.359 530.127 777.511 525.97 779.734C521.495 782.116 517.039 784.69 512.734 787.178C502.044 793.361 490.98 799.754 479.023 803.497C471.174 805.952 462.76 807.301 452.532 807.733C429.535 808.714 406.678 800.287 391.551 793.042C359.674 777.75 331.351 755.626 304.973 725.396C291.15 709.56 277.739 691.528 265.118 671.808C251.249 650.149 240.467 634.713 217.828 618.169C215.521 616.482 213.035 614.763 210.234 612.924C192.868 601.474 173.736 592.692 155.231 584.195C145.273 579.624 134.982 574.898 125.153 569.838C111.668 562.897 80.147 544.128 78.7701 519.854C77.5583 499.926 97.7264 489.008 109.862 484.276C112.473 483.253 115.158 482.269 117.755 481.304C130.409 476.633 143.496 471.796 153.052 461.902C166.003 448.474 163.49 428.963 160.833 408.296C159.879 400.871 158.889 393.186 158.71 385.887C158.36 371.728 161.747 361.787 169.362 354.623C179.488 345.075 195.9 342.132 211.763 339.287C213.24 339.024 214.706 338.76 216.178 338.491C229.541 336.04 242.292 333.265 251.479 326.236C260.019 319.708 263.697 310.349 267.254 301.3C269.557 295.437 271.94 289.371 275.622 284.104C281.748 275.345 291.939 268.292 307.702 261.906C323.547 255.462 342.537 251.404 362.616 250.179C375.283 249.41 388.901 249.653 403.084 250.898C425.143 252.871 446.296 256.952 467.752 263.391C470.685 264.269 473.824 265.256 477.347 266.395C481.086 267.611 484.899 268.896 488.596 270.146C499.178 273.719 510.117 277.409 521.114 280.059C537.714 284.095 554.496 285.905 570.727 287.656C577.373 288.374 584.244 289.115 590.975 289.995C621.965 294.013 653.698 301.542 685.299 312.385C734.749 329.276 782.64 354.095 823.782 384.161C834.046 391.66 845.499 400.567 851.469 411.297C860.855 428.165 853.12 444.714 843.369 460.084C833.982 474.957 823.759 489.556 812.992 503.483C810.991 506.076 808.958 508.659 806.919 511.249C804.527 514.292 802.053 517.435 799.651 520.563C792.031 530.488 783.38 542.486 777.048 556.255C776.673 557.072 776.304 557.894 775.945 558.715C769.745 572.969 766.469 588.526 763.296 603.568C761.812 610.618 760.274 617.906 758.469 624.874C755.775 635.274 751.568 644.966 747.492 653.996C739.498 671.675 730.4 685.92 719.561 697.539L719.561 697.529ZM87.3428 499.225C82.338 504.591 78.9245 511.379 79.4388 519.786C80.7951 543.731 112.089 562.339 125.478 569.233C135.297 574.284 145.588 579.01 155.53 583.577C174.056 592.082 193.209 600.873 210.618 612.353C213.43 614.201 215.92 615.926 218.238 617.612C240.967 634.23 251.781 649.706 265.683 671.426C278.287 691.121 291.682 709.128 305.484 724.943C331.804 755.109 360.058 777.19 391.861 792.444C406.919 799.655 429.676 808.051 452.538 807.067C462.708 806.634 471.07 805.298 478.856 802.856C490.74 799.138 501.768 792.763 512.422 786.597C516.732 784.104 521.193 781.524 525.678 779.142C529.851 776.913 534.261 774.75 538.777 772.717C559.882 763.221 583.924 756.566 607.174 750.133C641.246 740.705 676.48 730.947 702.107 712.155C720.836 698.439 735.064 679.876 746.882 653.736C750.947 644.728 755.139 635.073 757.823 624.725C759.628 617.769 761.156 610.491 762.64 603.452C765.818 588.373 769.104 572.784 775.329 558.471C775.688 557.639 776.057 556.817 776.437 555.995C782.805 542.166 791.476 530.125 799.122 520.172C801.524 517.044 803.998 513.902 806.396 510.853C808.428 508.269 810.461 505.685 812.463 503.093C823.225 489.182 833.433 474.599 842.81 459.748C852.448 444.552 860.102 428.206 850.883 411.638C844.972 401.025 833.588 392.172 823.372 384.707C782.277 354.676 734.445 329.89 685.052 313.022C653.488 302.193 621.802 294.666 590.855 290.657C584.128 289.771 577.262 289.035 570.622 288.322C554.37 286.572 537.562 284.758 520.925 280.708C509.891 278.056 498.941 274.356 488.349 270.783C484.657 269.538 480.844 268.253 477.111 267.031C473.598 265.892 470.465 264.91 467.532 264.032C446.113 257.607 425.006 253.528 402.99 251.563C388.838 250.317 375.256 250.077 362.621 250.844C342.61 252.071 323.698 256.109 307.92 262.522C292.287 268.855 282.195 275.823 276.151 284.473C272.51 289.675 270.147 295.699 267.859 301.524C264.267 310.664 260.553 320.114 251.853 326.76C242.542 333.88 229.697 336.681 216.251 339.148C214.779 339.417 213.308 339.685 211.836 339.944C196.066 342.773 179.765 345.694 169.787 355.103C162.327 362.122 159.017 371.896 159.364 385.846C159.541 393.104 160.526 400.773 161.486 408.182C164.023 427.902 166.644 448.288 153.906 461.944C153.777 462.082 153.648 462.22 153.52 462.358C143.85 472.374 130.691 477.236 117.963 481.932C115.372 482.891 112.692 483.88 110.086 484.897C103.293 487.552 93.9387 492.164 87.3481 499.23L87.3428 499.225Z" fill="#FF5F00"/>
<path d="M720.989 713.448C717.467 717.223 713.716 720.723 709.71 723.975C683.928 744.924 647.18 755.273 611.636 765.279C588.216 771.873 563.994 778.7 542.888 788.505C538.232 790.666 533.767 792.953 529.601 795.302C524.205 798.342 518.882 801.707 513.736 804.969C503.889 811.206 493.709 817.65 482.635 821.99C474.084 825.369 465.235 827.365 455.571 828.086C431.289 829.901 406.372 820.575 389.746 812.438C355.26 795.538 324.952 770.861 297.09 736.996C283.083 720.029 269.799 701.062 255.291 677.3C241.473 654.511 229.749 637 204.5 619.136C201.855 617.279 199.038 615.394 196.116 613.547C173.885 599.437 149.09 588.821 125.107 578.559C117.207 575.175 109.033 571.68 101.099 568.12C82.3868 559.719 50.9055 542.216 50.3512 519.401C50.1311 511.072 54.1021 503.782 62.1628 497.736C70.2908 491.64 80.7249 488.221 88.0441 486.429C91.4692 485.598 95.0208 484.822 98.4576 484.075C113.425 480.817 128.91 477.453 139.598 468.047C155.229 454.291 152.379 432.979 149.349 410.415C148.276 402.415 147.172 394.15 146.991 386.352C146.65 371.066 150.387 360.399 158.748 352.776C169.706 342.784 187.274 339.867 204.263 337.04C206.178 336.72 208.089 336.407 209.993 336.078C223.823 333.7 238.152 330.713 248.01 322.814C257.352 315.332 261.024 304.521 264.581 294.058C266.71 287.796 268.909 281.32 272.296 275.561C278.306 265.341 288.832 256.62 303.571 249.629C319.509 242.054 338.931 237.469 359.734 236.362C372.972 235.662 387.207 236.243 402.053 238.075C423.662 240.764 446.583 246.133 470.175 254.017C473.088 254.99 476.249 256.08 480.121 257.441C482.304 258.208 484.492 258.99 486.676 259.767C499.223 264.233 512.196 268.86 525.333 271.875C542.975 275.954 560.884 277.216 578.196 278.436C584.424 278.878 590.866 279.334 597.191 279.906C629.467 282.831 662.431 289.424 695.16 299.492C747.014 315.404 796.987 339.864 839.687 370.227C851.065 378.32 862.377 387.282 868.069 398.001C877.893 416.496 867.957 434.873 856.948 450.411C845.759 466.236 833.646 481.776 820.935 496.605C818.678 499.238 816.395 501.867 814.106 504.491C811.195 507.835 808.186 511.285 805.277 514.723C796.286 525.331 786.13 538.134 779.019 552.663C778.592 553.535 778.176 554.407 777.771 555.288C769.666 572.937 766.211 592.548 762.867 611.519C761.965 616.625 761.035 621.91 760.03 627.042C758.078 637.03 755.248 647.511 751.374 659.092C743.734 681.944 733.913 699.571 720.968 713.449L720.989 713.448ZM455.551 827.416C465.141 826.7 473.933 824.722 482.416 821.362C493.428 817.047 503.581 810.621 513.398 804.406C518.549 801.139 523.877 797.767 529.289 794.722C533.465 792.362 537.951 790.074 542.617 787.902C563.775 778.072 588.018 771.245 611.469 764.638C646.94 754.647 683.626 744.322 709.295 723.464C727.908 708.35 741.082 687.842 750.753 658.906C754.613 647.352 757.437 636.897 759.385 626.935C760.385 621.809 761.32 616.529 762.222 611.423C765.576 592.41 769.041 572.745 777.176 555.022C777.586 554.135 778.002 553.253 778.428 552.381C785.575 537.782 795.762 524.935 804.784 514.294C807.693 510.856 810.707 507.401 813.618 504.057C815.907 501.433 818.19 498.804 820.448 496.171C833.142 481.358 845.246 465.829 856.424 450.025C875.835 422.639 872.911 408.515 867.493 398.32C861.86 387.719 850.611 378.806 839.298 370.761C796.655 340.442 746.74 316.005 694.95 300.122C662.263 290.062 629.346 283.482 597.117 280.56C590.798 279.982 584.36 279.531 578.132 279.09C560.789 277.871 542.86 276.6 525.17 272.518C512.001 269.494 499.007 264.869 486.444 260.387C484.256 259.605 482.073 258.828 479.89 258.061C476.018 256.7 472.862 255.615 469.949 254.642C446.394 246.772 423.52 241.416 401.948 238.73C387.139 236.902 372.94 236.324 359.744 237.022C339.024 238.124 319.697 242.693 303.836 250.228C289.227 257.154 278.809 265.791 272.872 275.881C269.52 281.581 267.326 288.019 265.212 294.244C261.625 304.803 257.918 315.715 248.416 323.327C238.417 331.333 224 334.34 210.077 336.733C208.172 337.062 206.256 337.382 204.341 337.701C187.451 340.507 169.982 343.414 159.18 353.261C150.973 360.739 147.317 371.234 147.655 386.311C147.83 394.072 148.939 402.321 150.006 410.296C152.925 432.043 155.939 454.54 140.024 468.538C129.201 478.056 113.634 481.445 98.5773 484.723C95.1456 485.465 91.594 486.24 88.1794 487.071C54.0908 495.42 50.8423 512.427 51.0254 519.349C51.5743 541.807 82.823 559.156 101.399 567.491C109.322 571.052 117.496 574.546 125.39 577.925C149.395 588.197 174.216 598.827 196.49 612.966C199.422 614.823 202.249 616.707 204.899 618.58C230.249 636.517 242.016 654.078 255.872 676.933C270.363 700.67 283.631 719.611 297.617 736.559C325.421 770.358 355.66 794.982 390.067 811.839C406.624 819.943 431.42 829.229 455.556 827.421L455.551 827.416Z" fill="#FF5F00"/>
</g>
<defs>
<clipPath id="clip0_312_1269">
<rect width="697.535" height="678.119" fill="white" transform="translate(0 510.083) rotate(-46.9926)"/>
</clipPath>
</defs>
</svg>
